<?xml version="1.0" encoding="utf-8"?>
<!-- Generator: Adobe Illustrator 21.0.2, SVG Export Plug-In . SVG Version: 6.00 Build 0)  -->
<svg version="1.1" id="Layer_1" xmlns="http://www.w3.org/2000/svg" xmlns:xlink="http://www.w3.org/1999/xlink" x="0px" y="0px"
	 viewBox="0 0 16 16" enable-background="new 0 0 16 16" xml:space="preserve">
<path d="M16,14.6l-3.8-3.9c0.3-0.4,0.6-0.9,0.8-1.4C14.4,6,12.8,2,9.4,0.5C8.5,0.2,7.6,0,6.7,0l0,0C3,0,0,3,0,6.8
	C0,9.5,1.6,12,4.1,13c2.3,1,4.9,0.6,6.7-0.9l3.8,3.8L16,14.6z M1.9,6.8c0-2.7,2.2-4.9,4.8-4.9s4.8,2.2,4.8,4.9
	c0,2.7-2.2,4.9-4.8,4.9S1.9,9.5,1.9,6.8z"/>
</svg>
